<svg width="403" height="387" viewBox="0 0 403 387" fill="none" xmlns="http://www.w3.org/2000/svg">
<path d="M285.458 354.75C280.7 354.75 276.715 353.202 273.502 350.106C270.29 347.01 268.678 343.183 268.666 338.625V318.469C257.752 314.975 247.957 309.67 239.281 302.553C230.605 295.437 223.749 286.901 218.711 276.947C216.472 272.916 216.472 268.884 218.711 264.853C220.95 260.822 224.308 257.866 228.786 255.984C232.704 254.372 236.622 254.506 240.54 256.388C244.458 258.269 247.537 261.091 249.776 264.853C254.253 272.647 260.41 278.828 268.247 283.397C276.083 287.966 284.618 290.25 293.854 290.25H344.229C351.225 290.25 357.175 292.604 362.078 297.313C366.982 302.021 369.428 307.73 369.416 314.438V338.625C369.416 343.194 367.804 347.026 364.58 350.122C361.356 353.218 357.371 354.761 352.625 354.75H285.458ZM319.041 274.125C309.806 274.125 301.903 270.97 295.331 264.66C288.76 258.349 285.469 250.755 285.458 241.875C285.447 232.996 288.738 225.406 295.331 219.107C301.925 212.807 309.828 209.647 319.041 209.625C328.254 209.604 336.163 212.764 342.768 219.107C349.373 225.449 352.658 233.039 352.625 241.875C352.591 250.712 349.306 258.306 342.768 264.66C336.23 271.013 328.322 274.168 319.041 274.125ZM50.3747 177.375C45.617 177.375 41.6318 175.827 38.419 172.731C35.2062 169.635 33.5942 165.808 33.583 161.25V137.063C33.583 130.344 36.0346 124.636 40.9378 119.938C45.8409 115.24 51.7852 112.886 58.7705 112.875H109.146C118.381 112.875 126.917 110.591 134.753 106.022C142.589 101.453 148.746 95.272 153.224 87.4782C155.463 83.7157 158.541 80.695 162.459 78.416C166.377 76.137 170.435 75.664 174.633 76.997C179.391 78.3407 182.889 80.8939 185.128 84.6564C187.367 88.4189 187.647 92.1814 185.967 95.9439C181.21 106.694 174.353 115.966 165.398 123.759C156.442 131.553 146.087 137.331 134.333 141.094V161.25C134.333 165.819 132.727 169.646 129.514 172.731C126.301 175.816 122.31 177.364 117.541 177.375H50.3747ZM83.958 96.7501C74.7226 96.7501 66.8193 93.595 60.2482 87.2847C53.677 80.9745 50.3859 73.3796 50.3747 64.5001C50.3635 55.6206 53.6546 48.0311 60.2482 41.7316C66.8417 35.4321 74.745 32.2716 83.958 32.2501C93.171 32.2286 101.08 35.3891 107.685 41.7316C114.289 48.0741 117.575 55.6636 117.541 64.5001C117.508 73.3366 114.222 80.9315 107.685 87.2847C101.147 93.638 93.2382 96.7931 83.958 96.7501ZM167.916 225.75C163.159 225.75 159.173 224.202 155.961 221.106C152.748 218.01 151.136 214.183 151.125 209.625C151.125 173.613 164.138 143.109 190.165 118.116C216.192 93.122 247.957 80.6251 285.458 80.6251C290.216 80.6251 294.206 82.1677 297.43 85.253C300.654 88.3382 302.261 92.1706 302.25 96.7501C302.238 101.33 300.626 105.162 297.414 108.247C294.201 111.332 290.216 112.875 285.458 112.875C257.472 112.875 233.684 122.281 214.093 141.094C194.503 159.906 184.708 182.75 184.708 209.625C184.708 214.194 183.096 218.026 179.872 221.122C176.648 224.218 172.663 225.761 167.916 225.75ZM235.083 225.75C230.325 225.75 226.34 224.202 223.127 221.106C219.915 218.01 218.303 214.183 218.291 209.625C218.291 191.888 224.868 176.703 238.022 164.072C251.175 151.441 266.987 145.125 285.458 145.125C290.216 145.125 294.206 146.673 297.43 149.769C300.654 152.865 302.261 156.692 302.25 161.25C302.238 165.808 300.626 169.64 297.414 172.747C294.201 175.854 290.216 177.397 285.458 177.375C276.223 177.375 268.319 180.536 261.748 186.857C255.177 193.178 251.886 200.767 251.875 209.625C251.875 214.194 250.263 218.026 247.039 221.122C243.815 224.218 239.829 225.761 235.083 225.75Z" fill="white"/>
</svg>
